<?xml version="1.0" standalone="no"?>
<!DOCTYPE svg PUBLIC "-//W3C//DTD SVG 20010904//EN"
 "http://www.w3.org/TR/2001/REC-SVG-20010904/DTD/svg10.dtd">
<svg version="1.0" xmlns="http://www.w3.org/2000/svg"
 width="511.000000pt" height="511.000000pt" viewBox="0 0 511.000000 511.000000"
 preserveAspectRatio="xMidYMid meet">

<g transform="translate(0.000000,511.000000) scale(0.100000,-0.100000)"
fill="#000000" stroke="none">
<path d="M2856 3484 c-141 -22 -257 -83 -367 -193 -105 -106 -187 -247 -228
-396 -9 -35 -9 -35 52 28 57 59 127 108 127 90 0 -5 -54 -109 -119 -232 l-119
-224 -121 242 -122 241 -165 0 -165 0 17 -32 c9 -17 76 -137 149 -267 73 -130
162 -291 199 -359 l66 -123 0 -250 0 -249 41 0 c28 0 47 6 56 17 14 17 14 17
9 1 -5 -16 4 -18 89 -18 l95 0 0 252 0 252 126 224 125 225 -56 57 -55 56 55
81 56 81 -39 89 -39 90 19 34 c11 19 16 25 12 14 -16 -47 -12 -64 35 -145 l49
-85 -38 -71 -39 -71 57 -56 56 -56 -54 -113 c-54 -113 -54 -113 -58 -222 -3
-104 -5 -112 -34 -153 l-32 -43 18 -73 c9 -39 21 -79 27 -87 8 -12 9 -11 5 5
-2 11 -7 50 -11 87 -6 59 -4 68 13 77 18 9 20 5 26 -57 3 -37 6 -123 7 -192 1
-120 14 -295 17 -237 1 15 27 193 58 395 l56 367 45 58 c25 32 76 100 114 150
l69 92 -43 40 c-24 22 -70 63 -103 91 l-59 51 0 114 c0 136 13 167 99 247 81
73 194 112 330 112 71 1 61 12 -31 34 -90 22 -180 25 -277 10z m-1122 -539
c-4 -8 -8 -15 -10 -15 -2 0 -4 7 -4 15 0 8 4 15 10 15 5 0 7 -7 4 -15z m283
-321 c-3 -3 -12 -4 -19 -1 -8 3 -5 6 6 6 11 1 17 -2 13 -5z m613 -204 c-8 -5
-17 -7 -19 -4 -3 3 1 9 9 14 8 5 17 7 19 4 3 -3 -1 -9 -9 -14z m-520 -461 c0
-6 -4 -7 -10 -4 -5 3 -10 11 -10 16 0 6 5 7 10 4 6 -3 10 -11 10 -16z"/>
<path d="M2915 3291 c-54 -20 -128 -61 -122 -67 2 -3 42 5 88 16 l83 20 28
-27 27 -26 -55 -38 c-65 -46 -109 -70 -149 -80 -20 -6 -8 -7 40 -5 54 3 95 14
175 46 80 33 119 43 165 44 64 1 75 7 75 44 0 26 -41 72 -64 72 -25 0 -66 -43
-68 -72 -1 -16 -3 -28 -3 -28 0 0 -29 27 -65 60 -36 33 -74 60 -85 60 -11 -1
-42 -9 -70 -19z"/>
<path d="M3150 3143 c-13 -3 -58 -19 -100 -35 -99 -40 -166 -58 -217 -58 -24
0 -43 -4 -43 -8 0 -21 68 -103 141 -172 l80 -75 -60 -80 -60 -80 -1 -437 0
-438 145 0 145 0 0 245 0 245 188 2 187 3 67 125 c36 69 67 128 67 133 1 4
-114 7 -254 7 l-255 0 0 120 c0 66 1 121 3 122 1 1 98 4 216 7 l213 6 69 125
c38 69 68 128 69 133 0 4 -88 7 -195 7 -107 0 -195 3 -195 6 0 3 11 20 25 38
31 41 31 49 0 34 -20 -9 -37 -7 -90 11 -63 20 -93 23 -145 14z m510 -133 c0
-5 -4 -10 -10 -10 -5 0 -10 5 -10 10 0 6 5 10 10 10 6 0 10 -4 10 -10z m-610
-500 c0 -5 -2 -10 -4 -10 -3 0 -8 5 -11 10 -3 6 -1 10 4 10 6 0 11 -4 11 -10z
m10 -170 c0 -5 -5 -10 -11 -10 -5 0 -7 5 -4 10 3 6 8 10 11 10 2 0 4 -4 4 -10z
m-110 -470 c0 -5 -7 -10 -15 -10 -8 0 -15 5 -15 10 0 6 7 10 15 10 8 0 15 -4
15 -10z"/>
<path d="M624 2952 l66 -90 0 -551 0 -551 71 0 c59 0 70 3 65 15 -3 8 -1 15 4
15 6 0 10 -7 10 -15 0 -12 15 -15 75 -15 l75 0 0 506 0 506 133 -4 c108 -3
138 -7 165 -23 68 -40 92 -146 52 -224 -29 -58 -66 -71 -204 -71 -64 0 -116
-3 -116 -6 0 -8 331 -667 339 -677 4 -4 78 -6 163 -5 l156 3 -129 234 c-72
128 -129 234 -127 235 2 2 29 20 62 41 67 44 106 93 138 174 32 82 32 251 -1
334 -43 108 -119 185 -228 228 -57 23 -68 24 -446 27 l-388 3 65 -89z m61 8
c3 -5 1 -10 -4 -10 -6 0 -11 5 -11 10 0 6 2 10 4 10 3 0 8 -4 11 -10z m620
-10 c3 -5 1 -10 -4 -10 -6 0 -11 5 -11 10 0 6 2 10 4 10 3 0 8 -4 11 -10z
m175 -360 c0 -5 -5 -10 -11 -10 -5 0 -7 5 -4 10 3 6 8 10 11 10 2 0 4 -4 4
-10z"/>
<path d="M3791 2908 l-70 -133 165 -3 164 -2 0 -505 0 -505 145 0 145 0 0 506
0 505 116 -2 116 -1 17 28 c10 16 43 77 75 137 l58 107 -431 0 -430 0 -70
-132z m196 -50 c-3 -7 -5 -2 -5 12 0 14 2 19 5 13 2 -7 2 -19 0 -25z m453 -28
c0 -5 -5 -10 -11 -10 -5 0 -7 5 -4 10 3 6 8 10 11 10 2 0 4 -4 4 -10z m-345
-909 c3 -5 1 -12 -5 -16 -5 -3 -10 1 -10 9 0 18 6 21 15 7z"/>
</g>
</svg>
