<?xml version="1.0" standalone="no"?>
<!DOCTYPE svg PUBLIC "-//W3C//DTD SVG 20010904//EN"
 "http://www.w3.org/TR/2001/REC-SVG-20010904/DTD/svg10.dtd">
<svg version="1.0" xmlns="http://www.w3.org/2000/svg"
 width="3072.000000pt" height="3072.000000pt" viewBox="0 0 3072.000000 3072.000000"
 preserveAspectRatio="xMidYMid meet">

<g transform="translate(0.000000,3072.000000) scale(0.100000,-0.100000)"
fill="#000000" stroke="none">
<path d="M16645 20230 c-50 -5 -133 -19 -185 -31 -52 -11 -117 -25 -145 -29
-206 -33 -536 -159 -782 -300 -553 -318 -954 -756 -1275 -1390 -83 -164 -198
-446 -249 -608 -17 -53 -44 -137 -60 -186 -16 -49 -26 -92 -23 -95 4 -3 20 12
38 33 185 232 426 463 578 555 49 29 172 72 176 61 4 -11 -65 -156 -131 -275
-24 -44 -88 -163 -142 -265 -54 -102 -153 -284 -220 -405 -67 -121 -178 -326
-247 -455 -69 -129 -137 -255 -150 -280 -14 -25 -46 -84 -71 -132 l-47 -86
-94 181 c-51 100 -151 295 -221 432 -262 514 -358 701 -385 750 -15 28 -62
118 -105 200 -131 252 -217 409 -233 428 -14 16 -60 17 -694 17 -475 0 -678
-3 -678 -11 0 -12 103 -202 165 -304 23 -38 73 -126 110 -195 38 -69 138 -249
223 -400 86 -151 185 -329 222 -395 37 -66 102 -181 145 -255 119 -204 232
-405 597 -1060 67 -120 167 -302 299 -545 l44 -80 -2 -1031 -2 -1032 200 -1
199 -1 6 25 c3 13 3 28 0 34 -3 5 -2 21 4 36 12 31 47 31 42 0 -1 -11 -5 -37
-9 -57 l-6 -38 397 0 396 0 0 1031 0 1031 49 87 c27 47 72 125 100 173 27 48
69 127 92 175 23 49 70 133 104 188 34 55 93 156 130 225 37 69 110 196 161
282 51 86 136 232 188 325 51 92 128 226 170 297 42 72 76 135 76 140 0 6
-104 115 -232 243 l-232 232 33 53 c56 90 232 335 329 458 50 65 92 125 92
134 0 22 -171 433 -266 637 -55 120 -55 128 9 250 56 107 133 236 124 209 -2
-8 -35 -86 -71 -172 l-67 -157 42 -82 c22 -46 51 -99 64 -118 12 -20 55 -97
95 -171 40 -74 106 -190 146 -257 41 -67 74 -129 74 -139 0 -18 -39 -92 -197
-379 -34 -60 -73 -135 -88 -165 l-27 -55 144 -141 c119 -117 203 -197 317
-300 12 -11 11 -18 -2 -51 -20 -50 -233 -496 -355 -743 -112 -228 -102 -150
-88 -685 l8 -340 -57 -90 c-31 -49 -95 -141 -142 -203 l-86 -113 22 -107 c36
-169 107 -449 138 -541 33 -99 59 -122 49 -45 -4 27 -20 150 -36 274 -17 124
-33 263 -36 310 l-5 85 58 42 c32 24 70 52 85 65 15 12 30 19 33 17 5 -5 13
-241 35 -944 6 -181 15 -388 20 -460 6 -71 13 -304 17 -518 5 -342 10 -431 20
-354 79 646 103 809 298 2032 20 121 51 315 70 430 38 230 125 835 125 868 0
26 53 102 195 282 189 237 432 557 667 878 l107 147 -77 69 c-91 82 -212 182
-452 372 -229 182 -300 246 -316 286 -47 111 -78 522 -54 709 30 243 135 472
312 681 112 133 328 292 512 378 306 143 805 239 1161 222 107 -5 117 -4 95 8
-108 61 -422 146 -690 185 -96 15 -558 21 -675 10z m-760 -826 c0 -10 -8 -20
-17 -22 -18 -3 -26 27 -11 42 12 11 28 0 28 -20z m-285 -194 c0 -5 -2 -10 -4
-10 -3 0 -8 5 -11 10 -3 6 -1 10 4 10 6 0 11 -4 11 -10z m-800 -270 c-9 -6
-19 -5 -25 1 -6 6 -5 13 5 19 9 6 19 5 25 -1 6 -6 5 -13 -5 -19z m93 -196 c9
-10 -4 -34 -19 -34 -8 0 -14 6 -14 13 0 22 19 35 33 21z m122 -621 c3 -9 1
-21 -4 -26 -14 -14 -45 -4 -49 17 -7 35 39 43 53 9z m-3295 -128 c0 -30 -26
-85 -40 -85 -16 0 -11 49 7 81 21 36 33 37 33 4z m1087 -209 c-4 -9 -11 -16
-17 -16 -11 0 -14 33 -3 44 11 10 26 -11 20 -28z m1811 -168 c-7 -19 -38 -22
-38 -4 0 10 9 16 21 16 12 0 19 -5 17 -12z m1760 -401 c2 -10 -3 -17 -12 -17
-10 0 -16 9 -16 21 0 24 23 21 28 -4z m-1880 -219 c-7 -19 -38 -22 -38 -4 0
10 9 16 21 16 12 0 19 -5 17 -12z m-1378 -233 c0 -8 -4 -15 -9 -15 -13 0 -22
16 -14 24 11 11 23 6 23 -9z m2632 -47 c-11 -13 -25 -35 -31 -51 -10 -27 -36
-45 -48 -34 -3 4 2 22 11 41 9 19 16 41 16 50 0 12 10 16 37 16 l36 0 -21 -22z
m-1582 -65 c0 -18 -48 -27 -65 -13 -19 16 -4 37 28 42 23 3 37 -8 37 -29z
m188 -1 c3 -17 -2 -22 -17 -22 -22 0 -25 8 -15 35 9 22 28 14 32 -13z m-1431
-9 c3 -7 -13 -21 -34 -31 -35 -18 -41 -19 -67 -5 -33 17 -32 19 25 37 51 16
71 16 76 -1z m-154 -18 c-1 -5 -11 -12 -22 -17 -17 -6 -21 -3 -21 13 0 15 5
20 23 17 12 -2 21 -7 20 -13z m642 -15 c-20 -22 -31 -20 -22 5 4 8 14 15 23
15 16 0 16 -2 -1 -20z m-375 -136 c0 -10 -7 -14 -22 -12 -32 5 -35 28 -4 28
17 0 26 -5 26 -16z m-555 -4 c11 -17 -5 -32 -21 -19 -7 6 -11 15 -8 20 7 12
21 11 29 -1z m1085 -15 c0 -8 -6 -15 -14 -15 -20 0 -29 17 -14 23 22 9 28 7
28 -8z m978 -2 c2 -8 -5 -13 -17 -13 -21 0 -35 13 -24 24 10 10 36 3 41 -11z
m-1900 -20 c2 -9 -9 -13 -40 -13 -42 1 -43 1 -18 15 29 17 51 16 58 -2z m3275
-38 c1 -5 -6 -11 -15 -13 -11 -2 -18 3 -18 13 0 17 30 18 33 0z m-1383 -81 c0
-8 -9 -14 -20 -14 -22 0 -28 26 -7 33 16 6 27 -1 27 -19z m1080 -29 c0 -28
-24 -34 -34 -9 -8 20 1 34 20 34 8 0 14 -10 14 -25z m-2197 -270 c1 -5 -11
-12 -27 -13 -27 -3 -28 -2 -16 13 14 17 40 17 43 0z m2317 -60 c0 -9 -7 -18
-16 -22 -18 -7 -39 11 -30 26 11 17 46 13 46 -4z m-1290 -60 c0 -21 -28 -31
-43 -16 -9 9 -8 14 3 21 22 14 40 12 40 -5z m1091 -101 c-8 -18 -17 -25 -30
-21 -9 2 -26 -2 -36 -9 -21 -16 -65 -19 -65 -5 0 11 25 21 50 21 10 0 27 16
40 37 19 33 22 35 37 20 14 -14 15 -21 4 -43z m-2705 -25 c7 -12 -12 -29 -33
-29 -28 0 -11 36 19 39 4 1 10 -4 14 -10z m2932 -26 c4 -25 0 -26 -47 -17 -53
11 -33 45 24 41 13 -1 21 -10 23 -24z m-1198 -67 c-1 -20 -2 -20 -15 4 -19 33
-19 46 0 30 8 -7 15 -22 15 -34z m-792 -139 c2 -10 -3 -17 -12 -17 -10 0 -16
9 -16 21 0 24 23 21 28 -4z m-538 -5 c0 -13 -12 -22 -22 -16 -10 6 -1 24 13
24 5 0 9 -4 9 -8z m310 -262 c0 -12 -28 -25 -36 -17 -9 9 6 27 22 27 8 0 14
-5 14 -10z m-30 -586 c0 -8 -4 -12 -10 -9 -5 3 -10 10 -10 16 0 5 5 9 10 9 6
0 10 -7 10 -16z m-292 -26 c-6 -18 -28 -21 -28 -4 0 9 7 16 16 16 9 0 14 -5
12 -12z m2310 -130 c-5 -32 -28 -35 -28 -4 0 17 5 26 16 26 10 0 14 -7 12 -22z
m-88 -319 c0 -8 -58 -39 -75 -39 -2 0 9 13 26 30 30 28 49 31 49 9z m-1300
-253 c0 -14 -29 -31 -38 -22 -2 3 -2 12 1 21 8 19 37 20 37 1z m-850 -57 c21
-40 19 -84 -3 -76 -6 2 -19 29 -28 60 -14 47 -15 57 -3 57 7 0 23 -18 34 -41z
m230 10 c0 -5 -7 -9 -15 -9 -15 0 -20 12 -9 23 8 8 24 -1 24 -14z m-275 -580
c0 -17 -6 -25 -22 -27 -19 -3 -23 1 -23 21 0 25 14 38 35 33 6 -2 10 -14 10
-27z m225 -13 c0 -8 -4 -17 -9 -21 -12 -7 -24 12 -16 25 9 15 25 12 25 -4z
m523 -148 c2 -7 0 -24 -5 -38 l-9 -25 -15 28 c-8 15 -12 32 -9 37 9 14 32 12
38 -2z"/>
<path d="M16951 19459 c-86 -17 -227 -62 -330 -106 -197 -84 -420 -203 -457
-244 -18 -20 -17 -20 27 -13 54 8 140 26 284 59 112 26 209 45 349 70 43 8 87
17 96 20 12 4 45 -27 118 -109 56 -63 102 -117 102 -120 0 -3 -30 -21 -67 -40
-38 -20 -108 -65 -158 -101 -175 -128 -321 -220 -405 -256 -72 -30 -223 -74
-334 -95 -22 -4 -26 -8 -17 -17 8 -8 62 -11 174 -10 255 1 402 39 857 220 393
157 584 202 787 189 195 -14 174 -18 208 44 73 134 5 313 -147 390 -69 34
-120 38 -189 15 -127 -43 -209 -181 -209 -351 0 -46 -4 -86 -10 -89 -5 -3 -10
0 -10 8 0 23 -78 140 -119 177 -81 74 -357 316 -389 343 -37 29 -75 33 -161
16z"/>
<path d="M17785 18780 c-137 -19 -237 -51 -580 -183 -460 -176 -585 -206 -892
-210 -152 -2 -146 5 -91 -102 70 -139 242 -352 414 -515 38 -36 160 -145 272
-243 123 -108 202 -185 202 -196 0 -19 -60 -102 -323 -443 l-167 -218 2 -1817
3 -1818 602 0 c331 0 604 3 607 6 3 3 6 451 6 996 1 817 3 993 14 1002 10 8
233 12 784 12 572 1 774 4 781 12 5 7 70 129 144 273 75 144 159 303 187 355
133 240 250 463 250 478 0 8 -286 11 -1080 11 l-1080 0 0 503 0 504 383 7
c210 4 618 6 905 6 l524 -1 37 63 c20 35 65 117 100 183 35 66 86 163 114 215
28 52 94 174 147 270 183 330 223 410 208 415 -8 3 -391 4 -851 3 -460 -2
-837 -1 -837 0 0 2 18 24 39 49 36 40 60 74 178 247 48 70 43 98 -10 56 -49
-39 -115 -60 -188 -60 -58 0 -89 7 -177 41 -137 52 -181 67 -266 85 -85 18
-281 26 -361 14z m95 -214 c0 -17 -27 -29 -35 -16 -4 6 -3 15 0 20 9 15 35 12
35 -4z m1980 -350 c0 -13 -6 -29 -14 -35 -12 -10 -17 -8 -26 9 -15 28 -6 50
20 50 14 0 20 -7 20 -24z m-1280 -67 c12 -22 -4 -54 -21 -43 -16 9 -9 64 7 64
2 0 8 -9 14 -21z m-1665 -108 c3 -5 1 -12 -5 -16 -5 -3 -10 1 -10 9 0 18 6 21
15 7z m-253 -76 c-6 -32 -20 -41 -38 -23 -22 22 -11 50 18 46 17 -2 22 -9 20
-23z m1123 -4 c0 -23 -22 -24 -28 -1 -4 16 -1 20 11 18 9 -2 17 -10 17 -17z
m-845 -59 c0 -14 -11 -21 -26 -15 -8 3 -11 9 -8 14 7 11 34 12 34 1z m2760
-113 c0 -29 -18 -59 -35 -59 -20 0 -19 30 1 58 19 28 34 28 34 1z m-1920 -400
c0 -11 -4 -17 -10 -14 -5 3 -10 15 -10 26 0 11 5 17 10 14 6 -3 10 -15 10 -26z
m1060 -24 c0 -8 -7 -15 -15 -15 -8 0 -15 7 -15 15 0 8 7 15 15 15 8 0 15 -7
15 -15z m658 -2 c2 -8 -5 -13 -17 -13 -12 0 -21 6 -21 16 0 18 31 15 38 -3z
m-2105 -9 c9 -10 -4 -34 -19 -34 -8 0 -14 9 -14 20 0 19 19 27 33 14z m117
-475 c0 -14 -5 -19 -17 -17 -26 5 -29 38 -4 38 15 0 21 -6 21 -21z m178 -17
c3 -17 -2 -22 -17 -22 -14 0 -21 6 -21 18 0 38 33 41 38 4z m-411 -704 c40
-38 22 -88 -19 -52 -26 24 -40 52 -33 64 10 16 27 12 52 -12z m741 -90 c-2
-21 -8 -33 -18 -33 -19 0 -26 45 -8 56 23 15 29 10 26 -23z m-511 -52 c-8 -19
-37 -21 -37 -3 0 7 5 18 12 25 15 15 33 -1 25 -22z m749 -83 c-11 -11 -19 6
-11 24 8 17 8 17 12 0 3 -10 2 -21 -1 -24z m-946 -43 c0 -5 -7 -10 -16 -10 -8
0 -12 5 -9 10 3 6 10 10 16 10 5 0 9 -4 9 -10z m1630 -149 c0 -5 -7 -14 -15
-21 -12 -10 -15 -10 -15 2 0 8 3 18 7 21 9 10 23 9 23 -2z m-1210 -215 c0 -19
-27 -28 -33 -11 -7 15 1 25 20 25 7 0 13 -6 13 -14z m1430 -1 c0 -8 -9 -15
-20 -15 -20 0 -26 11 -13 23 12 13 33 7 33 -8z m240 -25 c0 -5 -9 -10 -20 -10
-11 0 -20 5 -20 10 0 6 9 10 20 10 11 0 20 -4 20 -10z m-2060 -12 c0 -19 -54
-128 -63 -128 -4 0 -10 7 -13 15 -8 21 42 125 60 125 9 0 16 -6 16 -12z m1218
-74 c-4 -21 -55 -60 -65 -51 -7 8 45 67 60 67 4 0 7 -7 5 -16z m-413 -170 c0
-10 -8 -20 -17 -22 -18 -3 -26 27 -11 42 12 11 28 0 28 -20z m-677 -6 c2 -12
-3 -18 -16 -18 -22 0 -46 23 -35 34 13 13 48 1 51 -16z m-258 -103 c0 -8 -4
-15 -9 -15 -13 0 -22 16 -14 24 11 11 23 6 23 -9z m-250 -70 c0 -8 -7 -15 -15
-15 -8 0 -15 7 -15 15 0 8 7 15 15 15 8 0 15 -7 15 -15z m268 -798 c2 -12 -3
-17 -17 -17 -15 0 -21 6 -21 21 0 25 33 22 38 -4z m-293 -167 c3 -6 -1 -13
-10 -16 -19 -8 -30 0 -20 15 8 14 22 14 30 1z m-205 -85 c0 -17 -36 -39 -50
-30 -14 9 -12 32 3 38 24 10 47 7 47 -8z m71 -471 c7 -8 30 -24 51 -35 21 -11
38 -26 38 -34 0 -17 -26 -21 -107 -17 -73 4 -78 14 -37 68 30 38 36 41 55 18z"/>
<path d="M6790 18339 c0 -7 15 -30 33 -53 18 -23 63 -85 101 -139 37 -54 102
-143 144 -196 94 -119 231 -302 255 -340 16 -27 17 -150 17 -2270 1 -1233 3
-2255 7 -2272 l6 -29 281 2 c275 3 281 3 278 23 -12 66 -13 93 -5 98 20 13 36
-14 41 -67 l4 -56 314 0 314 0 0 2074 0 2074 73 7 c39 4 279 5 532 3 492 -5
478 -3 626 -59 49 -19 79 -41 144 -104 100 -98 155 -201 186 -347 41 -201 16
-369 -80 -532 -78 -132 -206 -222 -382 -267 -78 -20 -113 -22 -529 -26 -340
-3 -444 -7 -442 -16 4 -15 422 -830 678 -1322 203 -390 231 -446 379 -725 51
-96 145 -278 210 -405 65 -126 134 -258 154 -292 l36 -63 656 0 c361 0 659 3
662 6 7 7 0 21 -191 359 -207 366 -580 1031 -663 1182 -43 78 -89 159 -102
180 -14 22 -42 73 -62 114 -20 40 -44 82 -53 92 -8 9 -13 18 -11 20 2 1 36 17
74 35 348 166 601 423 748 762 120 277 177 646 148 955 -50 520 -247 920 -595
1204 -246 201 -566 329 -956 383 -124 17 -3030 24 -3030 7z m3348 -215 c-4
-23 -18 -24 -32 -1 -8 14 -8 20 4 27 18 11 33 -2 28 -26z m-2843 -115 c33 -40
21 -58 -25 -39 -50 21 -68 70 -26 70 15 0 34 -12 51 -31z m2593 -9 c42 -20 56
-50 30 -66 -12 -7 -78 57 -78 76 0 13 0 13 48 -10z m-2100 -279 c3 -16 -1 -22
-10 -19 -7 3 -15 15 -16 27 -3 16 1 22 10 19 7 -3 15 -15 16 -27z m2250 -133
c-7 -19 -38 -22 -38 -4 0 10 9 16 21 16 12 0 19 -5 17 -12z m-1698 -34 c11
-12 10 -18 -3 -32 -16 -15 -18 -15 -33 0 -19 18 -12 48 9 48 8 0 20 -7 27 -16z
m2728 -30 c-5 -26 -38 -31 -38 -7 0 24 21 46 33 34 5 -5 7 -17 5 -27z m-2510
-48 c7 -33 -8 -66 -28 -66 -16 0 -20 7 -20 33 0 50 40 77 48 33z m1647 -147
c-8 -12 -35 -12 -35 0 0 11 22 20 33 14 4 -2 5 -9 2 -14z m-2412 -35 c11 -11
-5 -34 -24 -34 -18 0 -26 20 -12 33 8 9 28 9 36 1z m3107 -278 c0 -14 -5 -28
-10 -31 -13 -8 -24 20 -16 40 9 24 26 17 26 -9z m-18 -276 c-4 -44 -22 -65
-20 -24 1 16 -2 37 -7 48 -6 14 -4 17 11 14 15 -3 18 -11 16 -38z m-2394 -37
c-4 -20 -18 -26 -37 -14 -18 12 -5 31 20 31 14 0 19 -6 17 -17z m2182 -223 c0
-21 -46 -35 -91 -28 -23 4 -23 5 11 26 45 28 80 29 80 2z m-366 -311 c-32 -36
-47 -21 -17 18 22 28 29 33 31 19 2 -10 -4 -26 -14 -37z m816 -109 c0 -11 -4
-20 -9 -20 -14 0 -23 18 -16 30 10 17 25 11 25 -10z m-36 -109 c3 -5 -1 -12
-10 -15 -22 -9 -24 -8 -24 9 0 16 25 21 34 6z m-2994 -287 c0 -9 -7 -14 -17
-12 -25 5 -28 28 -4 28 12 0 21 -6 21 -16z m-310 -9 c16 -20 5 -45 -20 -45
-14 0 -20 7 -20 23 0 38 18 48 40 22z m2877 -71 c3 -8 -1 -23 -10 -32 -15 -14
-17 -14 -23 1 -8 21 1 47 16 47 6 0 13 -7 17 -16z m-274 -60 c-10 -27 -83 -31
-83 -5 0 12 59 30 77 24 6 -3 9 -11 6 -19z m-123 -24 c0 -5 -9 -10 -20 -10
-11 0 -20 5 -20 10 0 6 9 10 20 10 11 0 20 -4 20 -10z m-250 -46 c0 -8 -7 -14
-15 -14 -15 0 -21 21 -9 33 10 9 24 -2 24 -19z m512 -16 c-7 -7 -12 -8 -12 -2
0 14 12 26 19 19 2 -3 -1 -11 -7 -17z m-1062 -114 c0 -8 -4 -12 -10 -9 -5 3
-10 10 -10 16 0 5 5 9 10 9 6 0 10 -7 10 -16z m-144 -265 c9 -16 -12 -33 -31
-25 -14 5 -15 9 -5 21 15 18 26 19 36 4z m-1316 -105 c0 -10 -7 -14 -22 -12
-32 5 -35 28 -4 28 17 0 26 -5 26 -16z m125 -209 c0 -10 -6 -20 -12 -22 -8 -3
-13 5 -13 22 0 17 5 25 13 23 6 -3 12 -13 12 -23z m-720 -6 c-4 -5 -13 -9 -22
-9 -13 0 -13 3 -3 15 13 15 35 11 25 -6z m775 -399 c25 -25 26 -50 1 -50 -20
0 -71 43 -71 60 0 18 49 11 70 -10z m-693 -216 c8 -21 -13 -42 -28 -27 -13 13
-5 43 11 43 6 0 13 -7 17 -16z m2523 -39 c0 -16 -35 -21 -44 -6 -8 12 4 21 26
21 10 0 18 -7 18 -15z m-2335 -256 c0 -15 -7 -25 -18 -27 -22 -4 -33 24 -17
43 18 21 35 13 35 -16z m175 -29 c9 -16 8 -22 -4 -26 -21 -8 -36 3 -36 27 0
25 26 25 40 -1z m2203 -104 c3 -12 -30 -32 -39 -24 -11 12 5 40 21 36 9 -2 17
-7 18 -12z m-1979 -265 c3 -5 0 -14 -8 -20 -10 -9 -15 -8 -19 3 -9 22 15 37
27 17z m-314 -90 c0 -21 -26 -36 -36 -20 -6 11 13 39 27 39 5 0 9 -9 9 -19z
m-110 -36 c0 -26 -14 -33 -25 -15 -9 14 1 40 15 40 5 0 10 -11 10 -25z m3380
-70 c-7 -8 -16 -15 -21 -15 -14 0 -11 38 4 43 20 7 31 -11 17 -28z m-207 -11
c9 -9 -4 -35 -14 -28 -5 3 -9 12 -9 20 0 14 12 19 23 8z m-3093 -20 c0 -17
-22 -14 -28 4 -2 7 3 12 12 12 9 0 16 -7 16 -16z"/>
<path d="M20694 18323 c-10 -16 -78 -147 -152 -293 -74 -146 -151 -294 -172
-330 -54 -94 -250 -481 -250 -494 0 -8 184 -10 689 -8 545 2 691 -1 698 -10 4
-7 7 -938 6 -2068 -2 -1248 1 -2061 7 -2070 8 -13 81 -15 536 -19 290 -1 560
0 601 4 l73 7 0 2079 0 2079 484 0 484 0 29 48 c16 26 71 124 123 217 51 94
139 251 195 350 57 99 123 223 147 275 25 52 64 126 87 165 22 38 41 75 41 82
0 11 -355 13 -1804 13 l-1804 0 -18 -27z m1886 -233 c0 -11 -7 -20 -15 -20
-15 0 -21 21 -8 33 12 13 23 7 23 -13z m690 -214 c0 -8 -5 -18 -11 -22 -14 -8
-33 11 -25 25 10 16 36 13 36 -3z m-766 -25 c7 -10 -22 -37 -30 -28 -9 8 3 37
15 37 5 0 12 -4 15 -9z m266 -67 c0 -14 -21 -19 -33 -7 -9 9 13 34 24 27 5 -3
9 -12 9 -20z m-1514 -69 c12 -48 -13 -155 -36 -155 -11 0 -14 138 -4 164 9 24
33 19 40 -9z m1904 -245 c0 -20 -56 -60 -84 -60 -35 0 -8 56 37 75 36 15 47
12 47 -15z m-2116 -66 c9 -22 8 -24 -9 -24 -8 0 -15 9 -15 20 0 24 15 27 24 4z
m646 -1002 c0 -13 -12 -22 -22 -16 -10 6 -1 24 13 24 5 0 9 -4 9 -8z m-65
-257 c0 -15 -8 -21 -32 -23 -35 -3 -44 13 -21 36 19 19 53 10 53 -13z m415
-30 c0 -26 -14 -33 -25 -15 -9 14 1 40 15 40 5 0 10 -11 10 -25z m107 -246
c14 -14 6 -39 -12 -39 -15 0 -28 27 -19 41 7 12 18 11 31 -2z m210 -43 c-8
-19 -37 -21 -37 -3 0 7 5 18 12 25 15 15 33 -1 25 -22z m291 1 c2 -12 -3 -17
-17 -17 -12 0 -21 6 -21 13 0 31 32 34 38 4z m-1003 -112 c0 -28 -29 -25 -33
3 -3 19 0 23 15 20 10 -2 18 -12 18 -23z m145 -220 c37 -19 38 -27 5 -20 -14
3 -36 7 -50 10 -14 3 -23 10 -20 15 9 14 32 12 65 -5z m525 -124 c4 -8 -19
-41 -30 -41 -15 0 -35 15 -35 25 0 22 53 34 65 16z m75 -806 c0 -9 -9 -15 -25
-15 -16 0 -25 6 -25 15 0 9 9 15 25 15 16 0 25 -6 25 -15z m50 -641 c0 -17
-22 -14 -28 4 -2 7 3 12 12 12 9 0 16 -7 16 -16z m-733 -217 c10 -9 4 -21 -28
-55 -22 -24 -45 -42 -52 -39 -17 5 -22 98 -5 109 16 11 69 2 85 -15z m798 -8
c0 -7 -8 -15 -17 -17 -18 -3 -25 18 -11 32 10 10 28 1 28 -15z m-692 -85 c11
-11 -5 -34 -24 -34 -18 0 -26 20 -12 33 8 9 28 9 36 1z m580 -420 c10 -10 -12
-44 -28 -44 -18 0 -28 17 -21 35 5 15 37 20 49 9z"/>
<path d="M7503 12060 c-114 -24 -183 -99 -183 -200 0 -42 6 -64 25 -92 25 -36
98 -79 160 -93 84 -19 162 -48 182 -67 49 -46 11 -114 -78 -138 -52 -14 -147
9 -207 50 -23 17 -47 30 -52 30 -14 0 -50 -51 -50 -71 0 -25 57 -66 124 -89
72 -26 203 -26 264 -1 113 45 163 161 113 259 -32 62 -66 80 -236 127 -33 10
-75 26 -92 37 -28 17 -33 25 -33 58 0 30 6 44 31 64 17 14 42 29 55 32 41 10
109 -5 158 -36 26 -17 53 -30 60 -30 14 0 66 55 66 70 0 13 -62 55 -105 72
-52 20 -149 29 -202 18z"/>
<path d="M17925 12063 c-76 -9 -179 -67 -224 -125 -52 -67 -65 -109 -66 -218
0 -96 2 -110 29 -163 36 -72 107 -137 181 -165 72 -28 188 -30 258 -5 57 20
127 77 127 102 0 15 -49 61 -66 61 -3 0 -21 -13 -40 -29 -18 -17 -58 -38 -89
-47 -53 -17 -58 -17 -112 0 -98 31 -145 80 -172 178 -33 116 36 253 150 299
24 10 56 18 70 18 45 1 123 -31 160 -66 37 -35 55 -36 92 -5 23 20 22 35 -8
71 -51 60 -192 106 -290 94z"/>
<path d="M18679 12060 c-139 -24 -238 -117 -275 -260 -31 -120 4 -241 95 -331
72 -70 142 -99 240 -99 187 0 328 134 339 321 7 122 -34 221 -123 295 -76 64
-176 91 -276 74z m146 -114 c95 -45 135 -112 135 -227 0 -90 -23 -153 -71
-194 -120 -100 -289 -63 -355 80 -62 131 -2 294 126 346 61 24 106 23 165 -5z"/>
<path d="M11689 12043 c-18 -21 -37 -62 -77 -163 -32 -81 -145 -355 -168 -407
-8 -17 -17 -45 -20 -62 l-6 -31 51 0 52 0 32 70 32 70 161 0 c182 0 174 3 211
-84 l21 -51 56 -3 c67 -4 67 -2 27 94 -16 38 -44 105 -62 149 -18 44 -39 89
-46 100 -7 11 -13 25 -13 32 0 8 -13 41 -29 76 -16 34 -37 82 -47 107 -10 25
-29 62 -41 83 -22 34 -26 37 -72 37 -33 0 -52 -5 -62 -17z m127 -268 c31 -74
55 -137 53 -139 -6 -6 -53 -8 -146 -7 -79 1 -83 2 -83 24 0 12 20 69 44 127
24 58 47 113 50 123 3 10 10 16 15 13 5 -3 35 -67 67 -141z"/>
<path d="M12276 12038 c-10 -41 -7 -628 4 -649 11 -19 37 -24 78 -13 22 6 22
7 22 223 0 232 6 265 39 221 11 -14 88 -117 173 -229 158 -211 179 -230 234
-217 l24 6 -2 338 -3 337 -39 3 c-21 2 -43 -1 -48 -6 -5 -5 -11 -108 -13 -228
-2 -120 -4 -223 -4 -228 -2 -17 -39 25 -113 127 -41 56 -84 116 -97 132 -12
17 -44 60 -72 97 -64 87 -92 108 -139 108 -31 0 -39 -4 -44 -22z"/>
<path d="M13315 12035 c-14 -13 -25 -29 -25 -35 0 -5 -13 -38 -29 -72 -29 -65
-101 -239 -153 -368 -16 -41 -36 -89 -45 -106 -8 -17 -13 -42 -11 -55 3 -22 8
-24 47 -22 51 2 60 11 86 73 31 73 21 70 197 70 l159 0 22 -37 c12 -21 27 -51
32 -68 9 -28 14 -30 63 -33 44 -3 52 0 52 15 0 34 -241 615 -268 646 -24 27
-97 23 -127 -8z m91 -152 c4 -16 10 -32 13 -38 4 -5 17 -37 30 -70 12 -33 30
-76 38 -97 8 -20 12 -41 9 -47 -9 -15 -222 -15 -231 0 -4 6 14 61 40 122 26
62 51 122 56 135 12 31 37 28 45 -5z"/>
<path d="M13922 12052 c-9 -7 -12 -82 -10 -342 l3 -333 213 1 c117 1 217 4
222 7 19 11 11 74 -9 85 -11 5 -86 10 -170 10 l-151 0 -1 263 c-1 144 -4 273
-8 287 -5 20 -14 26 -41 28 -19 1 -41 -2 -48 -6z"/>
<path d="M14440 12044 c0 -18 34 -78 110 -194 27 -41 68 -106 92 -145 l43 -70
5 -125 5 -125 46 -3 46 -3 5 124 c5 122 5 126 44 193 59 105 100 173 172 282
42 65 38 82 -23 82 -53 0 -53 0 -205 -247 -17 -29 -35 -53 -38 -53 -4 0 -21
21 -38 48 -172 261 -164 252 -221 252 -33 0 -43 -4 -43 -16z"/>
<path d="M19295 12049 c-3 -8 -4 -163 -3 -344 l3 -330 29 -3 c15 -2 39 -1 52
2 l24 6 2 223 c3 189 5 222 18 222 8 0 49 -46 90 -102 41 -55 108 -146 149
-202 90 -121 106 -137 151 -145 67 -11 65 -23 62 341 -2 180 -6 331 -9 335 -2
5 -24 8 -48 8 -30 0 -45 -5 -49 -16 -3 -9 -6 -114 -6 -235 0 -132 -4 -219 -10
-219 -10 0 -81 92 -212 275 -108 150 -140 182 -195 191 -32 5 -44 3 -48 -7z"/>
<path d="M20305 12042 c-75 -32 -103 -52 -137 -94 -49 -64 -64 -96 -78 -171
-23 -124 12 -232 105 -322 54 -53 125 -85 190 -85 27 0 48 -13 115 -75 94 -86
119 -96 169 -69 67 37 67 83 0 95 -44 7 -76 25 -89 48 -10 20 -8 23 82 92 20
15 47 55 67 95 31 64 34 76 34 164 -1 77 -5 105 -23 145 -32 70 -112 146 -183
173 -73 28 -192 29 -252 4z m235 -110 c89 -55 132 -162 109 -269 -23 -103 -68
-155 -164 -188 -138 -46 -285 71 -285 228 0 200 185 325 340 229z"/>
<path d="M21458 12054 c-5 -4 -8 -100 -8 -213 0 -113 -5 -223 -11 -244 -13
-50 -61 -103 -106 -118 -42 -13 -116 -8 -158 12 -16 8 -42 33 -58 55 l-29 42
-7 228 -6 229 -44 3 c-28 2 -47 -1 -52 -10 -5 -7 -9 -106 -9 -221 0 -182 2
-214 20 -264 26 -74 63 -119 128 -156 49 -27 61 -30 145 -29 72 0 102 5 139
21 55 25 123 98 139 150 14 44 24 480 11 499 -10 15 -83 28 -94 16z"/>
<path d="M7970 12036 c0 -8 15 -61 33 -118 19 -57 49 -150 66 -208 18 -58 37
-116 43 -130 5 -14 21 -58 34 -99 13 -41 32 -83 41 -93 21 -23 75 -23 96 0 15
16 45 103 112 322 14 47 31 98 38 114 l13 30 21 -65 c11 -35 35 -111 53 -169
75 -244 82 -256 142 -245 24 5 39 15 47 32 10 22 79 240 115 363 8 25 26 83
41 130 15 47 30 100 32 118 l5 32 -51 0 c-51 0 -52 -1 -68 -37 -9 -21 -20 -51
-24 -68 -4 -16 -15 -52 -23 -80 -34 -119 -59 -213 -66 -248 -4 -21 -10 -41
-14 -44 -6 -7 -34 54 -47 102 -23 89 -102 333 -115 353 -10 15 -24 22 -48 22
-36 0 -60 -20 -70 -60 -4 -14 -13 -41 -21 -60 -7 -19 -29 -91 -49 -160 -46
-157 -62 -205 -71 -205 -8 0 -24 45 -70 203 -60 202 -78 257 -88 270 -14 18
-107 16 -107 -2z"/>
<path d="M9102 11718 l3 -333 53 -3 52 -3 0 335 0 336 -55 0 -55 0 2 -332z"/>
<path d="M9467 12043 c-4 -3 -7 -149 -7 -324 0 -355 0 -357 64 -343 17 3 34 8
39 11 4 2 7 108 7 234 0 180 3 230 13 227 6 -3 55 -103 107 -223 52 -120 103
-223 112 -229 27 -16 52 15 99 122 23 54 58 133 79 177 20 44 40 90 44 103 4
12 14 22 22 22 11 0 14 -26 14 -143 0 -191 9 -297 27 -304 7 -3 29 -2 48 1
l35 7 -2 332 -3 332 -71 3 -70 3 -26 -48 c-23 -43 -148 -332 -162 -375 -13
-42 -30 -16 -92 137 -19 50 -56 134 -81 188 l-46 97 -72 0 c-39 0 -75 -3 -78
-7z"/>
<path d="M15190 12006 c0 -37 4 -46 22 -52 12 -3 91 -5 177 -3 139 4 156 2
155 -12 -2 -20 -274 -382 -315 -419 -20 -18 -49 -83 -49 -109 l0 -31 271 0
270 0 -3 43 c-3 42 -3 42 -48 49 -25 3 -105 7 -177 7 -113 1 -133 3 -133 16 0
9 33 57 73 108 280 353 287 362 287 397 0 49 -6 50 -277 50 l-253 0 0 -44z"/>
<path d="M15930 11715 c0 -261 3 -335 13 -335 12 -1 455 -1 470 0 4 0 7 20 7
44 0 31 -5 46 -16 50 -9 3 -94 6 -190 6 l-175 0 3 93 3 92 170 5 170 5 3 39
c2 24 -2 42 -10 47 -7 5 -86 9 -175 9 l-163 0 0 84 c0 67 3 85 16 90 9 3 91 6
184 6 l168 0 7 30 c4 16 4 39 0 50 -6 19 -14 20 -246 20 l-239 0 0 -335z"/>
<path d="M21796 12034 c-3 -9 -6 -157 -6 -329 0 -289 1 -315 18 -323 23 -12
463 -15 480 -4 9 6 12 25 10 53 l-3 44 -195 5 -195 5 0 90 0 90 178 3 178 2
-3 48 -3 47 -172 3 -173 2 -6 26 c-10 37 3 136 18 145 7 5 91 9 186 9 l172 0
11 24 c7 14 9 36 5 50 l-6 26 -244 0 c-213 0 -245 -2 -250 -16z"/>
<path d="M22510 11717 c0 -366 -3 -347 58 -347 47 0 51 9 54 125 l3 110 79 0
79 0 58 -93 c82 -134 90 -142 144 -142 32 0 47 5 51 15 4 9 -16 49 -48 98 -60
90 -78 121 -78 135 0 5 20 22 44 37 67 42 89 89 84 183 -3 66 -7 83 -33 121
-52 77 -80 86 -302 89 l-193 3 0 -334z m389 203 c46 -55 42 -138 -7 -175 -24
-17 -43 -20 -147 -20 l-120 0 -3 90 c-5 146 -13 137 132 133 118 -3 125 -4
145 -28z"/>
<path d="M10780 11823 c-8 -3 -27 -17 -42 -31 -81 -75 -43 -197 66 -209 115
-13 181 113 104 200 -25 28 -43 38 -73 42 -22 2 -47 2 -55 -2z"/>
<path d="M16961 11813 c-23 -11 -40 -31 -53 -59 -18 -41 -18 -44 0 -89 22 -56
62 -85 117 -85 102 0 159 106 102 191 -40 59 -100 74 -166 42z"/>
</g>
</svg>
